<?xml version="1.0" encoding="UTF-8"?>
<svg xmlns="http://www.w3.org/2000/svg" xmlns:xlink="http://www.w3.org/1999/xlink" width="7pt" height="7pt" viewBox="0 0 7 7" version="1.1">
<g id="surface1">
<path style=" stroke:none;fill-rule:nonzero;fill:rgb(100%,100%,100%);fill-opacity:1;" d="M 6.738281 3.375 C 6.738281 5.21875 5.242188 6.714844 3.398438 6.714844 C 1.554688 6.714844 0.0625 5.21875 0.0625 3.375 C 0.0625 1.535156 1.554688 0.0390625 3.398438 0.0390625 C 5.242188 0.0390625 6.738281 1.535156 6.738281 3.375 Z M 6.738281 3.375 "/>
<path style=" stroke:none;fill-rule:nonzero;fill:rgb(0%,0%,0%);fill-opacity:1;" d="M 3.152344 6.726562 C 1.707031 6.652344 0.402344 5.527344 0.105469 4.113281 C -0.167969 2.929688 0.261719 1.625 1.1875 0.839844 C 1.84375 0.269531 2.726562 -0.03125 3.597656 0.0351562 C 4.972656 0.0898438 6.234375 1.109375 6.605469 2.433594 C 6.753906 2.917969 6.753906 3.441406 6.695312 3.941406 C 6.484375 5.21875 5.480469 6.320312 4.222656 6.628906 C 3.875 6.714844 3.507812 6.757812 3.152344 6.726562 Z M 2.636719 6.523438 C 2.023438 6.21875 1.644531 5.523438 1.730469 4.84375 C 1.800781 4.046875 2.527344 3.382812 3.328125 3.371094 C 3.996094 3.390625 4.65625 2.972656 4.902344 2.347656 C 5.195312 1.65625 4.941406 0.796875 4.324219 0.375 C 3.816406 0 3.136719 0.078125 2.558594 0.210938 C 1.222656 0.539062 0.191406 1.789062 0.117188 3.160156 C 0.0195312 4.398438 0.699219 5.648438 1.792969 6.238281 C 2.066406 6.386719 2.453125 6.558594 2.707031 6.5625 L 2.679688 6.542969 Z M 3.289062 2.128906 C 2.953125 2.066406 2.847656 1.570312 3.140625 1.378906 C 3.441406 1.148438 3.910156 1.464844 3.789062 1.832031 C 3.738281 2.046875 3.503906 2.179688 3.289062 2.128906 Z M 3.460938 5.421875 C 3.875 5.371094 3.882812 4.707031 3.46875 4.644531 C 3.144531 4.558594 2.859375 4.96875 3.050781 5.246094 C 3.132812 5.371094 3.308594 5.46875 3.460938 5.421875 Z M 3.460938 5.421875 "/>
</g>
</svg>
