<?xml version="1.0" encoding="UTF-8"?>
<svg xmlns="http://www.w3.org/2000/svg" xmlns:xlink="http://www.w3.org/1999/xlink" width="10pt" height="10pt" viewBox="0 0 10 10" version="1.1">
<g id="surface1">
<path style=" stroke:none;fill-rule:nonzero;fill:rgb(100%,100%,100%);fill-opacity:1;" d="M 9.625 4.824219 C 9.625 7.457031 7.492188 9.59375 4.855469 9.59375 C 2.222656 9.59375 0.0898438 7.457031 0.0898438 4.824219 C 0.0898438 2.191406 2.222656 0.0546875 4.855469 0.0546875 C 7.492188 0.0546875 9.625 2.191406 9.625 4.824219 Z M 9.625 4.824219 "/>
<path style=" stroke:none;fill-rule:nonzero;fill:rgb(0%,0%,0%);fill-opacity:1;" d="M 4.503906 9.613281 C 2.4375 9.503906 0.574219 7.894531 0.152344 5.875 C -0.238281 4.1875 0.371094 2.320312 1.695312 1.199219 C 2.632812 0.386719 3.894531 -0.046875 5.136719 0.0507812 C 7.101562 0.128906 8.90625 1.585938 9.433594 3.476562 C 9.648438 4.171875 9.648438 4.917969 9.5625 5.632812 C 9.265625 7.457031 7.832031 9.03125 6.035156 9.46875 C 5.539062 9.589844 5.015625 9.65625 4.503906 9.613281 Z M 3.765625 9.320312 C 2.890625 8.886719 2.347656 7.890625 2.472656 6.921875 C 2.574219 5.78125 3.609375 4.832031 4.753906 4.8125 C 5.710938 4.839844 6.652344 4.246094 7.003906 3.351562 C 7.417969 2.367188 7.058594 1.136719 6.175781 0.535156 C 5.449219 0 4.480469 0.113281 3.65625 0.300781 C 1.746094 0.769531 0.273438 2.554688 0.167969 4.515625 C 0.0273438 6.28125 1 8.066406 2.558594 8.914062 C 2.949219 9.125 3.503906 9.371094 3.867188 9.375 L 3.828125 9.347656 Z M 4.699219 3.042969 C 4.21875 2.949219 4.070312 2.242188 4.488281 1.972656 C 4.914062 1.640625 5.585938 2.09375 5.414062 2.617188 C 5.335938 2.921875 5.003906 3.113281 4.699219 3.042969 Z M 4.941406 7.746094 C 5.53125 7.671875 5.546875 6.722656 4.957031 6.632812 C 4.488281 6.507812 4.082031 7.09375 4.359375 7.492188 C 4.476562 7.671875 4.726562 7.808594 4.941406 7.746094 Z M 4.941406 7.746094 "/>
</g>
</svg>
