<?xml version="1.0" standalone="no"?>
<!DOCTYPE svg PUBLIC "-//W3C//DTD SVG 20010904//EN"
 "http://www.w3.org/TR/2001/REC-SVG-20010904/DTD/svg10.dtd">
<svg version="1.0" xmlns="http://www.w3.org/2000/svg"
 width="1920.000000pt" height="1920.000000pt" viewBox="0 0 1920.000000 1920.000000"
 preserveAspectRatio="xMidYMid meet">
<metadata>
Created by potrace 1.11, written by Peter Selinger 2001-2013
</metadata>
<g transform="translate(0.000000,1920.000000) scale(0.100000,-0.100000)"
fill="#000000" stroke="none">
<path d="M9238 18955 c-1 -1 -64 -6 -138 -9 -214 -11 -289 -17 -425 -31 -203
-22 -254 -28 -335 -40 -14 -2 -47 -7 -75 -10 -43 -6 -95 -14 -260 -41 -16 -3
-43 -7 -60 -10 -145 -23 -600 -124 -720 -158 -27 -8 -95 -27 -150 -41 -156
-42 -579 -179 -710 -230 -33 -12 -107 -41 -165 -63 -183 -71 -535 -222 -620
-267 -14 -7 -86 -43 -160 -80 -148 -73 -297 -152 -373 -197 -26 -15 -50 -28
-52 -28 -2 0 -56 -31 -121 -70 -64 -38 -118 -70 -120 -70 -8 0 -369 -236 -494
-323 -470 -328 -858 -654 -1280 -1077 -254 -254 -319 -323 -461 -490 -35 -41
-72 -84 -82 -95 -117 -126 -438 -555 -622 -830 -119 -178 -365 -575 -365 -590
0 -2 -14 -27 -30 -55 -132 -224 -371 -719 -480 -995 -17 -44 -38 -93 -45 -110
-98 -222 -320 -914 -380 -1185 -3 -14 -16 -72 -30 -130 -30 -126 -52 -227 -65
-295 -14 -74 -18 -98 -24 -121 -2 -12 -7 -39 -10 -60 -5 -33 -16 -98 -41 -240
-2 -12 -7 -48 -10 -80 -4 -33 -9 -66 -10 -74 -6 -34 -15 -98 -19 -140 -18
-166 -23 -215 -31 -315 -4 -44 -8 -98 -10 -119 -26 -253 -26 -1203 -1 -1366 2
-14 7 -68 11 -121 3 -53 8 -107 10 -120 2 -13 6 -55 10 -94 3 -38 8 -81 10
-95 3 -14 7 -46 10 -72 3 -26 7 -62 10 -80 2 -18 12 -80 20 -138 8 -58 18
-118 20 -135 3 -16 10 -57 16 -90 5 -33 16 -91 24 -130 8 -38 16 -81 18 -95
14 -76 61 -284 93 -410 20 -80 38 -152 40 -160 5 -23 40 -146 69 -245 37 -129
159 -491 207 -615 53 -139 136 -347 153 -385 7 -16 43 -97 80 -180 105 -234
258 -538 375 -741 26 -45 50 -88 54 -95 4 -8 12 -23 19 -34 7 -11 46 -76 87
-145 96 -160 306 -475 438 -655 107 -147 340 -444 395 -505 18 -19 42 -48 54
-63 25 -32 135 -156 233 -262 101 -110 517 -523 599 -595 41 -36 79 -70 85
-75 91 -87 420 -353 630 -510 275 -205 732 -501 981 -635 33 -18 65 -36 70
-40 66 -49 549 -284 850 -415 312 -135 888 -336 1175 -410 77 -20 421 -105
440 -109 14 -3 57 -12 95 -21 138 -31 424 -81 595 -106 41 -5 86 -12 100 -14
40 -6 101 -14 160 -20 30 -3 71 -8 90 -10 49 -7 121 -13 215 -20 44 -4 95 -8
114 -10 237 -27 1036 -27 1361 -1 30 3 89 7 130 11 41 3 86 7 100 9 14 3 61 7
105 11 44 4 82 8 85 10 3 1 37 5 75 9 39 4 81 8 95 11 14 2 43 6 65 10 94 14
184 28 320 51 354 60 859 187 1255 316 140 45 475 166 525 188 11 5 61 26 110
46 314 127 797 359 1023 493 27 16 76 44 108 62 113 62 371 223 551 345 154
104 527 374 543 393 3 3 21 18 42 33 20 15 42 33 50 40 7 8 33 29 58 48 25 19
50 39 56 45 6 5 33 29 60 52 88 74 188 162 288 253 95 86 523 516 606 609 41
46 80 89 85 95 6 6 37 42 70 81 33 38 73 84 88 101 116 131 419 533 579 769
114 168 303 468 357 568 16 29 47 84 68 122 59 102 138 253 205 390 33 66 66
131 73 145 45 85 196 436 267 620 22 58 50 132 63 165 44 112 176 512 205 620
4 17 22 82 40 145 52 192 117 460 136 570 3 14 13 68 24 120 11 52 26 138 35
190 8 52 17 104 19 116 2 12 7 45 11 75 4 30 8 56 10 59 2 3 6 34 10 70 3 36
8 72 10 80 2 8 6 46 10 83 3 37 8 76 10 85 1 9 6 53 9 97 4 44 9 103 12 130
35 350 40 1203 9 1483 -2 21 -7 73 -10 117 -9 109 -17 188 -30 300 -2 17 -6
51 -9 77 -3 26 -8 62 -11 80 -2 18 -12 80 -20 138 -8 58 -17 117 -20 133 -3
15 -10 55 -15 90 -37 216 -132 637 -191 847 -5 19 -12 45 -14 57 -22 101 -184
595 -251 764 -19 47 -34 89 -34 93 0 3 -8 25 -19 49 -10 23 -33 78 -51 122
-66 161 -93 222 -131 303 -21 46 -39 85 -39 88 0 7 -186 378 -228 456 -201
371 -476 812 -656 1054 -17 23 -40 55 -51 70 -79 111 -352 457 -402 509 -10
11 -28 33 -41 49 -12 15 -42 51 -68 80 -25 28 -78 87 -117 130 -173 192 -508
527 -647 646 -14 12 -43 38 -65 58 -477 436 -1190 933 -1809 1262 -310 164
-884 430 -929 430 -7 0 -17 4 -22 9 -6 5 -80 35 -165 66 -432 160 -821 276
-1250 372 -197 44 -447 90 -670 123 -156 23 -311 42 -450 55 -36 3 -78 8 -95
10 -16 2 -82 6 -145 10 -63 4 -131 9 -150 11 -40 6 -886 14 -892 9z"/>
</g>
</svg>
