<?xml version="1.0" encoding="UTF-8"?>
<svg xmlns="http://www.w3.org/2000/svg" xmlns:xlink="http://www.w3.org/1999/xlink" width="50pt" height="50pt" viewBox="0 0 50 50" version="1.1">
<g id="surface1">
<path style=" stroke:none;fill-rule:nonzero;fill:rgb(100%,100%,100%);fill-opacity:1;" d="M 49.8125 24.96875 C 49.8125 38.597656 38.765625 49.648438 25.136719 49.648438 C 11.503906 49.648438 0.457031 38.597656 0.457031 24.96875 C 0.457031 11.339844 11.503906 0.289062 25.136719 0.289062 C 38.765625 0.289062 49.8125 11.339844 49.8125 24.96875 Z M 49.8125 24.96875 "/>
<path style=" stroke:none;fill-rule:nonzero;fill:rgb(0%,0%,0%);fill-opacity:1;" d="M 23.300781 49.742188 C 12.609375 49.1875 2.980469 40.855469 0.789062 30.402344 C -1.230469 21.671875 1.929688 12.011719 8.773438 6.214844 C 13.628906 1.992188 20.15625 -0.234375 26.582031 0.25 C 36.761719 0.664062 46.082031 8.207031 48.824219 17.992188 C 49.949219 21.589844 49.945312 25.449219 49.492188 29.152344 C 47.945312 38.582031 40.527344 46.730469 31.226562 49.007812 C 28.65625 49.640625 25.945312 49.96875 23.300781 49.742188 Z M 19.492188 48.222656 C 14.957031 45.996094 12.152344 40.835938 12.796875 35.820312 C 13.308594 29.902344 18.691406 25.015625 24.605469 24.910156 C 29.558594 25.0625 34.441406 21.984375 36.242188 17.335938 C 38.398438 12.253906 36.535156 5.875 31.957031 2.773438 C 28.207031 0.0078125 23.183594 0.59375 18.914062 1.554688 C 9.042969 3.972656 1.410156 13.21875 0.859375 23.359375 C 0.140625 32.511719 5.179688 41.75 13.242188 46.128906 C 15.261719 47.21875 18.128906 48.496094 20.015625 48.519531 L 19.808594 48.394531 Z M 24.320312 15.75 C 21.820312 15.269531 21.066406 11.597656 23.21875 10.207031 C 25.429688 8.488281 28.898438 10.828125 28.027344 13.554688 C 27.628906 15.125 25.890625 16.113281 24.320312 15.75 Z M 25.574219 40.082031 C 28.640625 39.699219 28.71875 34.789062 25.660156 34.324219 C 23.238281 33.691406 21.132812 36.71875 22.5625 38.78125 C 23.167969 39.699219 24.460938 40.425781 25.574219 40.082031 Z M 25.574219 40.082031 "/>
</g>
</svg>
